<svg width="49" height="50" viewBox="0 0 49 50" fill="none" xmlns="http://www.w3.org/2000/svg">
<path d="M40.8551 24.5039L19.5182 47.9414C19.2921 48.1888 18.9937 48.3541 18.6679 48.4123C18.3421 48.4705 18.0067 48.4185 17.7123 48.2642C17.4178 48.1099 17.1804 47.8615 17.0357 47.5567C16.891 47.2518 16.8469 46.907 16.9102 46.5742L19.703 32.2519L8.72406 28.0254C8.48827 27.935 8.278 27.7861 8.11204 27.592C7.94607 27.3979 7.82958 27.1647 7.77298 26.9133C7.71637 26.6618 7.72141 26.3998 7.78764 26.1508C7.85387 25.9018 7.97924 25.6735 8.15253 25.4863L29.4894 2.04881C29.7155 1.80142 30.014 1.63614 30.3398 1.57791C30.6656 1.51968 31.001 1.57166 31.2954 1.726C31.5898 1.88035 31.8273 2.12869 31.972 2.43354C32.1167 2.7384 32.1607 3.08323 32.0975 3.416L29.297 17.7539L40.276 21.9746C40.51 22.0656 40.7186 22.2144 40.8833 22.4077C41.048 22.6009 41.1637 22.8329 41.2202 23.0829C41.2767 23.3329 41.2722 23.5933 41.2072 23.8412C41.1422 24.089 41.0187 24.3166 40.8475 24.5039H40.8551Z" fill="#FFCA16"/>
</svg>
