<svg width="27" height="27" viewBox="0 0 27 27" fill="none" xmlns="http://www.w3.org/2000/svg">
<path d="M17.5 16.5C17.5 17.0304 17.2893 17.5391 16.9142 17.9142C16.5391 18.2893 16.0304 18.5 15.5 18.5H14.5V14.5H15.5C16.0304 14.5 16.5391 14.7107 16.9142 15.0858C17.2893 15.4609 17.5 15.9696 17.5 16.5ZM26.5 13.5C26.5 16.0712 25.7376 18.5846 24.3091 20.7224C22.8807 22.8603 20.8503 24.5265 18.4749 25.5104C16.0995 26.4944 13.4856 26.7518 10.9638 26.2502C8.44208 25.7486 6.1257 24.5105 4.30762 22.6924C2.48953 20.8743 1.25141 18.5579 0.749797 16.0362C0.248189 13.5144 0.505633 10.9006 1.48957 8.52512C2.47351 6.14968 4.13975 4.11935 6.27759 2.6909C8.41543 1.26244 10.9288 0.5 13.5 0.5C16.9467 0.50364 20.2512 1.87445 22.6884 4.31163C25.1256 6.74882 26.4964 10.0533 26.5 13.5ZM19.5 16.5C19.5 15.4391 19.0786 14.4217 18.3284 13.6716C17.5783 12.9214 16.5609 12.5 15.5 12.5H14.5V8.5H15C15.5304 8.5 16.0391 8.71071 16.4142 9.08579C16.7893 9.46086 17 9.96957 17 10.5C17 10.7652 17.1054 11.0196 17.2929 11.2071C17.4804 11.3946 17.7348 11.5 18 11.5C18.2652 11.5 18.5196 11.3946 18.7071 11.2071C18.8946 11.0196 19 10.7652 19 10.5C19 9.43913 18.5786 8.42172 17.8284 7.67157C17.0783 6.92143 16.0609 6.5 15 6.5H14.5V5.5C14.5 5.23478 14.3946 4.98043 14.2071 4.79289C14.0196 4.60536 13.7652 4.5 13.5 4.5C13.2348 4.5 12.9804 4.60536 12.7929 4.79289C12.6054 4.98043 12.5 5.23478 12.5 5.5V6.5H12C10.9391 6.5 9.92172 6.92143 9.17158 7.67157C8.42143 8.42172 8.00001 9.43913 8.00001 10.5C8.00001 11.5609 8.42143 12.5783 9.17158 13.3284C9.92172 14.0786 10.9391 14.5 12 14.5H12.5V18.5H11.5C10.9696 18.5 10.4609 18.2893 10.0858 17.9142C9.71072 17.5391 9.50001 17.0304 9.50001 16.5C9.50001 16.2348 9.39465 15.9804 9.20711 15.7929C9.01958 15.6054 8.76522 15.5 8.50001 15.5C8.23479 15.5 7.98044 15.6054 7.7929 15.7929C7.60536 15.9804 7.50001 16.2348 7.50001 16.5C7.50001 17.5609 7.92143 18.5783 8.67158 19.3284C9.42172 20.0786 10.4391 20.5 11.5 20.5H12.5V21.5C12.5 21.7652 12.6054 22.0196 12.7929 22.2071C12.9804 22.3946 13.2348 22.5 13.5 22.5C13.7652 22.5 14.0196 22.3946 14.2071 22.2071C14.3946 22.0196 14.5 21.7652 14.5 21.5V20.5H15.5C16.5609 20.5 17.5783 20.0786 18.3284 19.3284C19.0786 18.5783 19.5 17.5609 19.5 16.5ZM10 10.5C10 11.0304 10.2107 11.5391 10.5858 11.9142C10.9609 12.2893 11.4696 12.5 12 12.5H12.5V8.5H12C11.4696 8.5 10.9609 8.71071 10.5858 9.08579C10.2107 9.46086 10 9.96957 10 10.5Z" fill="#FFCA16"/>
</svg>
