<svg width="23" height="27" viewBox="0 0 23 27" fill="none" xmlns="http://www.w3.org/2000/svg">
<path d="M20.5 0.5H2.5C1.96957 0.5 1.46086 0.710714 1.08579 1.08579C0.710714 1.46086 0.5 1.96957 0.5 2.5V24.5C0.5 25.0304 0.710714 25.5391 1.08579 25.9142C1.46086 26.2893 1.96957 26.5 2.5 26.5H20.5C21.0304 26.5 21.5391 26.2893 21.9142 25.9142C22.2893 25.5391 22.5 25.0304 22.5 24.5V2.5C22.5 1.96957 22.2893 1.46086 21.9142 1.08579C21.5391 0.710714 21.0304 0.5 20.5 0.5ZM12.5 15.41V15.5C12.5 15.7652 12.3946 16.0196 12.2071 16.2071C12.0196 16.3946 11.7652 16.5 11.5 16.5C11.2348 16.5 10.9804 16.3946 10.7929 16.2071C10.6054 16.0196 10.5 15.7652 10.5 15.5V14.5C10.5 14.2348 10.6054 13.9804 10.7929 13.7929C10.9804 13.6054 11.2348 13.5 11.5 13.5C13.1537 13.5 14.5 12.375 14.5 11C14.5 9.625 13.1537 8.5 11.5 8.5C9.84625 8.5 8.5 9.625 8.5 11V11.5C8.5 11.7652 8.39464 12.0196 8.20711 12.2071C8.01957 12.3946 7.76522 12.5 7.5 12.5C7.23478 12.5 6.98043 12.3946 6.79289 12.2071C6.60536 12.0196 6.5 11.7652 6.5 11.5V11C6.5 8.51875 8.7425 6.5 11.5 6.5C14.2575 6.5 16.5 8.51875 16.5 11C16.5 13.1725 14.7787 14.9913 12.5 15.41ZM13 20C13 20.2967 12.912 20.5867 12.7472 20.8334C12.5824 21.08 12.3481 21.2723 12.074 21.3858C11.7999 21.4993 11.4983 21.5291 11.2074 21.4712C10.9164 21.4133 10.6491 21.2704 10.4393 21.0607C10.2296 20.8509 10.0867 20.5836 10.0288 20.2926C9.97094 20.0017 10.0006 19.7001 10.1142 19.426C10.2277 19.1519 10.42 18.9176 10.6666 18.7528C10.9133 18.588 11.2033 18.5 11.5 18.5C11.8978 18.5 12.2794 18.658 12.5607 18.9393C12.842 19.2206 13 19.6022 13 20Z" fill="#FFCA16"/>
</svg>
