<svg width="27" height="27" viewBox="0 0 27 27" fill="none" xmlns="http://www.w3.org/2000/svg">
<path d="M13.5 0.5C10.9288 0.5 8.41543 1.26244 6.27759 2.6909C4.13975 4.11935 2.47351 6.14968 1.48957 8.52512C0.505633 10.9006 0.248189 13.5144 0.749797 16.0362C1.25141 18.5579 2.48953 20.8743 4.30762 22.6924C6.1257 24.5105 8.44208 25.7486 10.9638 26.2502C13.4856 26.7518 16.0995 26.4944 18.4749 25.5104C20.8503 24.5265 22.8807 22.8603 24.3091 20.7224C25.7376 18.5846 26.5 16.0712 26.5 13.5C26.4964 10.0533 25.1256 6.74882 22.6884 4.31163C20.2512 1.87445 16.9467 0.50364 13.5 0.5ZM13.5 21.5C13.2033 21.5 12.9133 21.412 12.6667 21.2472C12.42 21.0824 12.2277 20.8481 12.1142 20.574C12.0007 20.2999 11.971 19.9983 12.0288 19.7074C12.0867 19.4164 12.2296 19.1491 12.4393 18.9393C12.6491 18.7296 12.9164 18.5867 13.2074 18.5288C13.4983 18.4709 13.7999 18.5007 14.074 18.6142C14.3481 18.7277 14.5824 18.92 14.7472 19.1666C14.912 19.4133 15 19.7033 15 20C15 20.3978 14.842 20.7794 14.5607 21.0607C14.2794 21.342 13.8978 21.5 13.5 21.5ZM14.5 15.41V15.5C14.5 15.7652 14.3946 16.0196 14.2071 16.2071C14.0196 16.3946 13.7652 16.5 13.5 16.5C13.2348 16.5 12.9804 16.3946 12.7929 16.2071C12.6054 16.0196 12.5 15.7652 12.5 15.5V14.5C12.5 14.2348 12.6054 13.9804 12.7929 13.7929C12.9804 13.6054 13.2348 13.5 13.5 13.5C15.1538 13.5 16.5 12.375 16.5 11C16.5 9.625 15.1538 8.5 13.5 8.5C11.8463 8.5 10.5 9.625 10.5 11V11.5C10.5 11.7652 10.3946 12.0196 10.2071 12.2071C10.0196 12.3946 9.76522 12.5 9.50001 12.5C9.23479 12.5 8.98044 12.3946 8.7929 12.2071C8.60536 12.0196 8.50001 11.7652 8.50001 11.5V11C8.50001 8.51875 10.7425 6.5 13.5 6.5C16.2575 6.5 18.5 8.51875 18.5 11C18.5 13.1725 16.78 14.9913 14.5 15.41Z" fill="#FFCA16"/>
</svg>
