<svg width="42" height="42" viewBox="0 0 42 42" fill="none" xmlns="http://www.w3.org/2000/svg">
<path d="M41.8875 3.81375C41.8875 3.81375 41.8875 3.8325 41.8875 3.84188L30.975 39.8306C30.8098 40.4152 30.4698 40.9352 30.0006 41.321C29.5314 41.7067 28.9554 41.9397 28.35 41.9888C28.2637 41.9963 28.1775 42 28.0912 42C27.5238 42.0018 26.9678 41.8412 26.4887 41.5372C26.0096 41.2332 25.6275 40.7985 25.3875 40.2844L18.5625 26.2781C18.4942 26.1378 18.4714 25.9796 18.4973 25.8257C18.5231 25.6717 18.5964 25.5297 18.7068 25.4194L29.5668 14.5594C29.8363 14.2758 29.9843 13.8982 29.9793 13.507C29.9742 13.1159 29.8166 12.7422 29.54 12.4656C29.2634 12.189 28.8897 12.0313 28.4986 12.0263C28.1074 12.0213 27.7298 12.1693 27.4462 12.4387L16.5806 23.2987C16.4703 23.4092 16.3283 23.4825 16.1743 23.5083C16.0204 23.5342 15.8622 23.5114 15.7218 23.4431L1.70247 16.62C1.15426 16.357 0.698902 15.9336 0.39675 15.406C0.0945981 14.8783 -0.0400872 14.2713 0.0105423 13.6654C0.0611718 13.0594 0.294726 12.4832 0.680254 12.013C1.06578 11.5428 1.58508 11.2009 2.16934 11.0325L38.1581 0.119999H38.1862C38.6986 -0.0239606 39.2401 -0.0290073 39.7551 0.105377C40.2701 0.23976 40.7401 0.508736 41.1168 0.884708C41.4935 1.26068 41.7635 1.73011 41.8989 2.24484C42.0343 2.75956 42.0304 3.30105 41.8875 3.81375Z" fill="black"/>
</svg>
